<svg xmlns="http://www.w3.org/2000/svg" version="1.1" xmlns:xlink="http://www.w3.org/1999/xlink" xmlns:svgjs="http://svgjs.dev/svgjs" width="1900" height="1000" preserveAspectRatio="none" viewBox="0 0 1900 1000">
    <g mask="url(&quot;#SvgjsMask1088&quot;)" fill="none">
        <path d="M109.862,249.088C138.819,248.029,161.76,227.86,176.567,202.953C191.782,177.359,201.59,145.861,186.483,120.203C171.532,94.809,139.32,88.846,109.862,89.658C82.095,90.423,55.179,100.827,40.221,124.234C24.033,149.566,19.491,181.907,34.135,208.162C49.116,235.02,79.13,250.212,109.862,249.088" fill="rgba(28, 83, 142, 0.4)" class="triangle-float3"></path>
        <path d="M103.07924699691577 210.47606398384468L365.3123495851604 219.88367261163944 261.1758088528997 15.504203763539579z" fill="rgba(28, 83, 142, 0.4)" class="triangle-float1"></path>
        <path d="M588.491,969.758C669.256,966.38,730.813,905.38,770.011,834.684C807.812,766.507,820.932,685.652,784.111,616.941C745.296,544.511,670.494,490.637,588.491,495.956C512.823,500.864,470.969,574.479,432.388,639.757C392.755,706.815,345.313,780.638,378.621,851.051C415.456,928.92,502.424,973.357,588.491,969.758" fill="rgba(28, 83, 142, 0.4)" class="triangle-float3"></path>
        <path d="M360.68088566683736 838.1328440284717L251.3836924453295 1082.9900745199093 484.8913279620682 1062.5608035654511z" fill="rgba(28, 83, 142, 0.4)" class="triangle-float1"></path>
        <path d="M694.7871274623586 378.33374284503407L708.0871826276349 568.5333929595095 898.2868327421103 555.2333377942332 884.986777576834 365.03368767975775z" fill="rgba(28, 83, 142, 0.4)" class="triangle-float3"></path>
        <path d="M909.101,1175.213C996.433,1178.213,1077.386,1127.384,1119.792,1050.979C1161.018,976.699,1155.643,884.992,1109.912,813.398C1067.411,746.86,988.024,718.929,909.101,721.129C834.329,723.213,764.869,759.696,726.787,824.077C687.992,889.664,686.957,969.687,722.071,1037.317C760.325,1110.995,826.133,1172.363,909.101,1175.213" fill="rgba(28, 83, 142, 0.4)" class="triangle-float2"></path>
        <path d="M138.48 901.11 a290.75 290.75 0 1 0 581.5 0 a290.75 290.75 0 1 0 -581.5 0z" fill="rgba(28, 83, 142, 0.4)" class="triangle-float1"></path>
        <path d="M395.5223404114214 453.39159347428557L370.77425405952937 251.8346047950471 193.96535173218294 478.1396798261776z" fill="rgba(28, 83, 142, 0.4)" class="triangle-float1"></path>
        <path d="M1793.357,906.834C1888.426,910.248,1981.496,864.941,2028.756,782.381C2075.744,700.296,2069.242,596.1,2015.965,517.951C1968.302,448.037,1877.971,436.65,1793.357,437.09C1709.788,437.524,1619.318,449.569,1574.722,520.245C1527.735,594.711,1542.179,689.823,1585.524,766.466C1629.632,844.457,1703.815,903.619,1793.357,906.834" fill="rgba(28, 83, 142, 0.4)" class="triangle-float2"></path>
        <path d="M686.21 350.25 a218.14 218.14 0 1 0 436.28 0 a218.14 218.14 0 1 0 -436.28 0z" fill="rgba(28, 83, 142, 0.4)" class="triangle-float2"></path>
        <path d="M498.88050648662727 297.09818104188344L464.3927157113053 77.99962515462713 311.6093907869819 197.3670408879065z" fill="rgba(28, 83, 142, 0.4)" class="triangle-float3"></path>
        <path d="M1513.786816718375 523.9495422005402L1274.8003892884692 515.6039522566043 1266.4547993445333 754.59037968651 1505.441226774439 762.9359696304459z" fill="rgba(28, 83, 142, 0.4)" class="triangle-float1"></path>
        <path d="M607.0938959140249 162.09080721390546L652.1244464114183 5.0506149951883685 495.0842541927011-39.97993550220497 450.0537036953078 117.06025671651211z" fill="rgba(28, 83, 142, 0.4)" class="triangle-float1"></path>
        <path d="M1638.593,557.348C1697.233,558.605,1758.479,535.941,1785.379,483.82C1810.767,434.629,1784.184,378.902,1754.95,331.895C1727.862,288.34,1689.877,248.672,1638.593,247.798C1586.048,246.902,1541.949,282.597,1515.156,327.807C1487.744,374.062,1476.85,430.399,1502.315,477.753C1529.019,527.411,1582.223,556.14,1638.593,557.348" fill="rgba(28, 83, 142, 0.4)" class="triangle-float3"></path>
        <path d="M1084.1603386193829 475.812389885069L1161.6125451693094 667.5133280848758 1275.8612768191895 398.36018333514244z" fill="rgba(28, 83, 142, 0.4)" class="triangle-float2"></path>
    </g>
    <defs>
        <mask id="SvgjsMask1088">
            <rect width="1900" height="1000" fill="#ffffff"></rect>
        </mask>
        <style>
            @keyframes float1 {
                    0%{transform: translate(0, 0)}
                    50%{transform: translate(-10px, 0)}
                    100%{transform: translate(0, 0)}
                }

                .triangle-float1 {
                    animation: float1 5s infinite;
                }

                @keyframes float2 {
                    0%{transform: translate(0, 0)}
                    50%{transform: translate(-5px, -5px)}
                    100%{transform: translate(0, 0)}
                }

                .triangle-float2 {
                    animation: float2 4s infinite;
                }

                @keyframes float3 {
                    0%{transform: translate(0, 0)}
                    50%{transform: translate(0, -10px)}
                    100%{transform: translate(0, 0)}
                }

                .triangle-float3 {
                    animation: float3 6s infinite;
                }
        </style>
    </defs>
</svg>